<?xml version="1.0" encoding="utf-8"?>
<!-- Generator: Adobe Illustrator 24.1.2, SVG Export Plug-In . SVG Version: 6.00 Build 0)  -->
<svg version="1.1" id="Layer_1" xmlns="http://www.w3.org/2000/svg" xmlns:xlink="http://www.w3.org/1999/xlink" x="0px" y="0px"
	 viewBox="0 0 276 34" style="enable-background:new 0 0 276 34;" xml:space="preserve">
<style type="text/css">
	.st0{fill:#F13024;}
	.st1{fill:#FFFFFF;}
</style>
<g>
	<path class="st0" d="M270.5,31.5v-4.4h4.1v4.4H270.5z"/>
	<g>
		<path class="st1" d="M32,31.5h-6.3V19.6c0-1.7,0-2.8-0.1-3.3c-0.1-0.5-0.4-0.9-0.8-1.3c-0.4-0.3-1-0.5-1.7-0.5
			c-0.7,0-1.4,0.2-2.1,0.7c-0.7,0.5-1.1,1.9-1.1,4.3v11.9h-6.3V19.6c0-1.7-0.1-2.8-0.2-3.3s-0.4-0.9-0.9-1.2c-0.4-0.3-1-0.5-1.6-0.5
			c-1.1,0-1.9,0.3-2.4,1c-0.5,0.7-0.8,2-0.8,4v11.9H1.4V10h6v3.3c1-2.5,3-3.7,6-3.7c2.7,0,4.7,1.2,5.9,3.7c1.2-2.5,3.3-3.7,6.2-3.7
			c1.4,0,2.6,0.3,3.7,0.9c1,0.6,1.8,1.3,2.2,2.3s0.7,2.5,0.7,4.8V31.5z"/>
		<path class="st1" d="M46.1,9.6c3.3,0,5.8,1.1,7.7,3.2c1.8,2.1,2.8,4.8,2.8,8c0,3.2-1,5.8-2.9,7.9c-1.9,2.1-4.4,3.2-7.6,3.2
			c-3.1,0-5.5-1-7.3-3.1C36.9,26.7,36,24,36,20.7c0-2.3,0.4-4.2,1.2-5.8c0.8-1.6,2-2.9,3.4-3.9C42.1,10.1,43.9,9.6,46.1,9.6z
			 M46.3,13.7c-1.2,0-2.1,0.5-2.7,1.4c-0.6,0.9-0.9,2.8-0.9,5.5c0,2.5,0.3,4.4,0.9,5.5c0.6,1.1,1.5,1.7,2.7,1.7
			c1.1,0,1.9-0.5,2.6-1.4c0.7-0.9,1-2.7,1-5.4c0-2.8-0.3-4.7-0.9-5.7C48.4,14.2,47.5,13.7,46.3,13.7z"/>
		<path class="st1" d="M67.7,15V24c0,1.1,0.2,1.9,0.5,2.3s1.1,0.6,2.4,0.6c0.6,0,1.2,0,2-0.1v4.7c-1.8,0.3-3.2,0.5-4,0.5
			c-2.6,0-4.5-0.5-5.6-1.5c-1.1-1-1.7-2.8-1.7-5.5V15H58V10h3.8l0.5-6.3l5.5-0.4V10h4.6V15H67.7z"/>
		<path class="st1" d="M82.2,1.9v6.3h-6.3V1.9H82.2z M82.2,10v21.5h-6.3V10H82.2z"/>
		<path class="st1" d="M96.3,9.6c3.3,0,5.8,1.1,7.7,3.2c1.8,2.1,2.8,4.8,2.8,8c0,3.2-1,5.8-2.9,7.9c-1.9,2.1-4.4,3.2-7.6,3.2
			c-3.1,0-5.5-1-7.3-3.1c-1.8-2.1-2.7-4.8-2.7-8.1c0-2.3,0.4-4.2,1.2-5.8c0.8-1.6,2-2.9,3.4-3.9C92.3,10.1,94.1,9.6,96.3,9.6z
			 M96.5,13.7c-1.2,0-2.1,0.5-2.7,1.4c-0.6,0.9-0.9,2.8-0.9,5.5c0,2.5,0.3,4.4,0.9,5.5c0.6,1.1,1.5,1.7,2.7,1.7
			c1.1,0,1.9-0.5,2.6-1.4c0.7-0.9,1-2.7,1-5.4c0-2.8-0.3-4.7-0.9-5.7C98.6,14.2,97.7,13.7,96.5,13.7z"/>
		<path class="st1" d="M129.4,31.5H123V19.5c0-1.5-0.1-2.5-0.2-3c-0.1-0.5-0.4-1-0.8-1.4c-0.4-0.4-1-0.6-1.7-0.6
			c-2.2,0-3.3,1.6-3.3,4.9v12.1h-6.3V10h5.9v3.6c1-1.7,1.9-2.8,2.9-3.3c0.9-0.5,2-0.7,3.1-0.7c2,0,3.7,0.5,4.9,1.6
			c1.2,1.1,1.9,3.3,1.9,6.5V31.5z"/>
		<path class="st1" d="M152.6,29.2v2.6c-1.2,0.2-2.2,0.2-3.1,0.2c-4.2,0-6.2-2.2-6.2-6.5V12.7h-3.8V10h3.8l0.1-5.4l3.1-0.3V10h4.8
			v2.6h-4.8v13.5c0,2.2,1.1,3.3,3.4,3.3C150.8,29.5,151.6,29.4,152.6,29.2z"/>
		<path class="st1" d="M173.1,31.5h-3v-4.1c-1.5,3.1-3.8,4.7-6.8,4.7c-2.2,0-3.9-0.7-5.2-2.2c-1.3-1.4-1.9-3.5-1.9-6.2V10h3.3v13.7
			c0,2.1,0.4,3.6,1.3,4.4s1.9,1.2,2.9,1.2c1.1,0,2.1-0.3,2.9-0.9s1.6-1.5,2.2-2.6c0.6-1.1,0.9-2.4,0.9-3.7V10h3.3V31.5z"/>
		<path class="st1" d="M189.6,29.2v2.6c-1.2,0.2-2.2,0.2-3.1,0.2c-4.2,0-6.2-2.2-6.2-6.5V12.7h-3.8V10h3.8l0.1-5.4l3.1-0.3V10h4.8
			v2.6h-4.8v13.5c0,2.2,1.1,3.3,3.4,3.3C187.7,29.5,188.6,29.4,189.6,29.2z"/>
		<path class="st1" d="M200.2,32.1c-2.9,0-5.2-1.1-6.9-3.3c-1.7-2.2-2.5-4.9-2.5-8.1c0-3.4,0.9-6.1,2.8-8.2c1.9-2,4.2-3.1,6.9-3.1
			c3,0,5.3,1.1,7,3.2c1.7,2.1,2.6,4.8,2.6,8.1c0,3.3-0.9,6.1-2.8,8.2C205.5,31,203.2,32.1,200.2,32.1z M200.5,29.3
			c1.7,0,3.1-0.7,4.3-2.1c1.1-1.4,1.7-3.6,1.7-6.5c0-3-0.6-5.1-1.8-6.5s-2.6-2-4.2-2c-1.7,0-3.1,0.7-4.2,2c-1.1,1.4-1.7,3.5-1.7,6.4
			c0,3.1,0.6,5.3,1.7,6.7C197.4,28.7,198.8,29.3,200.5,29.3z"/>
		<path class="st1" d="M218.5,31.5h-3.3V10h2.9v5c1-2.4,2.1-3.9,3.1-4.6s2.1-1.1,3.2-1.1c0.3,0,0.8,0,1.3,0.1v3.2h-0.7
			c-1.8,0-3.4,0.7-4.6,2.1c-1.2,1.4-1.9,3.2-2,5.4V31.5z"/>
		<path class="st1" d="M233,2.5v3.7h-3.6V2.5H233z M232.9,10v21.5h-3.3V10H232.9z"/>
		<path class="st1" d="M256.3,31.5H253c-0.1-0.7-0.3-2-0.4-3.9c-1.5,3-4,4.5-7.5,4.5c-2.4,0-4.3-0.6-5.5-1.9
			c-1.3-1.3-1.9-2.8-1.9-4.6c0-2.2,0.9-4,2.8-5.4c1.8-1.4,5-2.1,9.4-2.1c0.6,0,1.5,0,2.8,0.1c0-1.7-0.1-2.9-0.4-3.7
			c-0.3-0.8-0.8-1.4-1.7-1.8c-0.9-0.5-2-0.7-3.4-0.7c-3.4,0-5.4,1.3-5.9,3.9l-3.1-0.5c0.8-4,3.9-5.9,9.5-5.9c3,0,5.1,0.7,6.3,2
			s1.9,3.6,1.9,6.8v9.1C255.9,28.9,256,30.2,256.3,31.5z M252.6,20.8c-1.4-0.1-2.4-0.1-3.1-0.1c-2.6,0-4.7,0.4-6.1,1.3
			c-1.5,0.9-2.2,2.1-2.2,3.8c0,1.1,0.4,1.9,1.2,2.7c0.8,0.7,1.9,1.1,3.4,1.1c2,0,3.7-0.7,5-2.2c1.3-1.5,1.9-3.2,1.9-5.2
			C252.7,21.8,252.7,21.3,252.6,20.8z"/>
		<path class="st1" d="M265.9,31.5h-3.3v-29h3.3V31.5z"/>
	</g>
</g>
</svg>
